<svg xmlns="http://www.w3.org/2000/svg" xmlns:xlink="http://www.w3.org/1999/xlink" version="1.1" width="256" height="256" viewBox="0 0 256 256" xml:space="preserve">

<defs>
</defs>
<g style="stroke: none; stroke-width: 0; stroke-dasharray: none; stroke-linecap: butt; stroke-linejoin: miter; stroke-miterlimit: 10; fill: none; fill-rule: nonzero; opacity: 1;" transform="translate(1.4065934065934016 1.4065934065934016) scale(2.81 2.81)" >
	<path d="M 64.133 64.094 H 25.868 c -3.619 0 -6.563 -2.944 -6.563 -6.563 V 32.469 c 0 -3.619 2.944 -6.563 6.563 -6.563 h 38.265 c 3.618 0 6.563 2.944 6.563 6.563 v 25.062 C 70.695 61.149 67.751 64.094 64.133 64.094 z M 25.868 27.907 c -2.516 0 -4.563 2.047 -4.563 4.563 v 25.062 c 0 2.516 2.047 4.563 4.563 4.563 h 38.265 c 2.516 0 4.563 -2.047 4.563 -4.563 V 32.469 c 0 -2.516 -2.047 -4.563 -4.563 -4.563 H 25.868 z" 
	style="stroke: none; stroke-width: 1; stroke-dasharray: none; stroke-linecap: butt; stroke-linejoin: miter; stroke-miterlimit: 10; fill: #ff1f8f; fill-rule: nonzero; opacity: 1;" transform=" matrix(1 0 0 1 0 0) " stroke-linecap="round" />
	<path d="M 45 51.709 c -1.892 0 -3.707 -0.802 -4.981 -2.199 L 27.383 35.646 c -0.372 -0.408 -0.343 -1.041 0.065 -1.413 c 0.409 -0.371 1.041 -0.341 1.413 0.065 l 12.636 13.864 c 0.909 0.998 2.153 1.547 3.502 1.547 s 2.593 -0.549 3.502 -1.547 l 12.637 -13.864 c 0.372 -0.409 1.004 -0.437 1.413 -0.065 c 0.408 0.372 0.438 1.005 0.065 1.413 L 49.98 49.51 C 48.706 50.907 46.891 51.709 45 51.709 z" style="stroke: none; stroke-width: 1; stroke-dasharray: none; stroke-linecap: butt; stroke-linejoin: miter; stroke-miterlimit: 10; fill: #ff1f8f; fill-rule: nonzero; opacity: 1;" transform=" matrix(1 0 0 1 0 0) " stroke-linecap="round" />
	<path d="M 45 90 C 20.187 90 0 69.813 0 45 C 0 20.187 20.187 0 45 0 c 24.813 0 45 20.187 45 45 C 90 69.813 69.813 90 45 90 z M 45 2 C 21.29 2 2 21.29 2 45 c 0 23.71 19.29 43 43 43 c 23.71 0 43 -19.29 43 -43 C 88 21.29 68.71 2 45 2 z" style="stroke: none; stroke-width: 1; stroke-dasharray: none; stroke-linecap: butt; stroke-linejoin: miter; stroke-miterlimit: 10; fill: #ff1f8f; fill-rule: nonzero; opacity: 1;" transform=" matrix(1 0 0 1 0 0) " stroke-linecap="round" />
	<path d="M 28.509 57.175 c -0.256 0 -0.512 -0.098 -0.707 -0.293 c -0.391 -0.391 -0.391 -1.023 0 -1.414 l 9.908 -9.907 c 0.391 -0.391 1.023 -0.391 1.414 0 s 0.391 1.023 0 1.414 l -9.908 9.907 C 29.021 57.077 28.765 57.175 28.509 57.175 z" style="stroke: none; stroke-width: 1; stroke-dasharray: none; stroke-linecap: butt; stroke-linejoin: miter; stroke-miterlimit: 10; fill: #ff1f8f; fill-rule: nonzero; opacity: 1;" transform=" matrix(1 0 0 1 0 0) " stroke-linecap="round" />
	<path d="M 61.878 57.175 c -0.25 0 -0.499 -0.093 -0.693 -0.279 L 50.89 46.988 c -0.398 -0.383 -0.41 -1.016 -0.027 -1.414 c 0.383 -0.398 1.016 -0.41 1.414 -0.027 l 10.295 9.907 c 0.398 0.383 0.41 1.017 0.027 1.414 C 62.402 57.072 62.141 57.175 61.878 57.175 z" 
	style="stroke: none; stroke-width: 1; stroke-dasharray: none; stroke-linecap: butt; stroke-linejoin: miter; stroke-miterlimit: 10; fill: #ff1f8f; fill-rule: nonzero; opacity: 1;" transform=" matrix(1 0 0 1 0 0) " stroke-linecap="round" />
</g>
</svg>